<svg xmlns="http://www.w3.org/2000/svg" xmlns:xlink="http://www.w3.org/1999/xlink" width="30" height="30" viewBox="0 0 30 30">
  <defs>
    <clipPath id="clip-Artboard_2">
      <rect width="30" height="30"/>
    </clipPath>
  </defs>
  <g id="Artboard_2" data-name="Artboard – 2" clip-path="url(#clip-Artboard_2)">
    <g id="Group_176" data-name="Group 176" transform="translate(5 1)">
      <g id="Group_175" data-name="Group 175" transform="translate(0)">
        <path id="Path_120" data-name="Path 120" d="M92.258,11.788V7.623a7.623,7.623,0,0,0-15.246,0v4.165a2.937,2.937,0,0,0-2.346,2.872V25.215A2.935,2.935,0,0,0,77.6,28.147H91.672A2.935,2.935,0,0,0,94.6,25.215V14.66A2.936,2.936,0,0,0,92.258,11.788ZM78.184,7.623a6.45,6.45,0,1,1,12.9,0v4.1H89.912v-4.1a5.278,5.278,0,0,0-10.555,0v4.1H78.184Zm10.555,0v4.1H80.53v-4.1a4.1,4.1,0,1,1,8.21,0Zm4.691,17.592a1.761,1.761,0,0,1-1.759,1.759H77.6a1.761,1.761,0,0,1-1.759-1.759V14.66A1.761,1.761,0,0,1,77.6,12.9H91.672a1.761,1.761,0,0,1,1.759,1.759Z" transform="translate(-74.666)" fill="#5cdb95"/>
        <path id="Path_121" data-name="Path 121" d="M205.6,277.333a2.925,2.925,0,0,0-1.3,5.548l-.453,3.165a.585.585,0,0,0,.581.669h2.346a.59.59,0,0,0,.443-.2.582.582,0,0,0,.137-.467l-.453-3.165a2.924,2.924,0,0,0-1.3-5.547Zm.49,4.61a.588.588,0,0,0-.415.646l.422,2.953H205.1l.422-2.953a.587.587,0,0,0-.415-.646,1.741,1.741,0,0,1-1.269-1.678,1.759,1.759,0,0,1,3.518,0A1.741,1.741,0,0,1,206.089,281.943Z" transform="translate(-195.63 -262.087)" fill="#5cdb95"/>
      </g>
    </g>
  </g>
</svg>
