<svg xmlns="http://www.w3.org/2000/svg" xmlns:xlink="http://www.w3.org/1999/xlink" width="30" height="30" viewBox="0 0 30 30">
  <defs>
    <clipPath id="clip-Artboard_1">
      <rect width="30" height="30"/>
    </clipPath>
  </defs>
  <g id="Artboard_1" data-name="Artboard – 1" clip-path="url(#clip-Artboard_1)">
    <g id="_008-user" data-name="008-user" transform="translate(1 0.979)">
      <g id="Group_174" data-name="Group 174" transform="translate(0 0.021)">
        <g id="Group_173" data-name="Group 173" transform="translate(0 0)">
          <path id="Path_117" data-name="Path 117" d="M13,2.383a.6.6,0,0,0,.339-.11A6.456,6.456,0,0,1,17.281,1.2a3.867,3.867,0,0,1,3.485,1.5c.784,1.2.445,1.819.076,2.212l-.591.591a.589.589,0,0,0-.172.389l-.144,2.955a.589.589,0,0,0,.582.619.591.591,0,0,1,.441.2.579.579,0,0,1,.139.458L20.8,12.5a.608.608,0,0,1-.644.517.592.592,0,0,0-.582.49,6.26,6.26,0,0,1-.6,1.56A.59.59,0,0,0,20,15.638a8.446,8.446,0,0,0,.633-1.5,1.775,1.775,0,0,0,1.338-1.5l.3-2.362a1.768,1.768,0,0,0-1.13-1.873l.109-2.224.442-.442c.666-.709,1.218-1.922.064-3.681A4.959,4.959,0,0,0,17.28.021,7.792,7.792,0,0,0,12.8,1.2C7.77,1.31,7.086,3.647,7.086,5.926c0,.53.129,1.724.214,2.445A1.771,1.771,0,0,0,6.077,10.28l.3,2.362a1.775,1.775,0,0,0,1.42,1.52,8.211,8.211,0,0,0,2.172,4.4L9.553,20.2,5.028,21.335A6.627,6.627,0,0,0,0,27.774a.589.589,0,0,0,.591.591l15.356-.022a.591.591,0,0,0,0-1.181h0l-14.73.021a5.447,5.447,0,0,1,4.1-4.7l4.868-1.216a.592.592,0,0,0,.43-.43l.579-2.316a.589.589,0,0,0-.17-.574,6.926,6.926,0,0,1-2.113-4.387.589.589,0,0,0-.588-.543H8.129a.59.59,0,0,1-.586-.517l-.3-2.362a.592.592,0,0,1,.586-.665h.122a.59.59,0,0,0,.586-.664c-.076-.6-.274-2.3-.274-2.879C8.267,4.084,8.63,2.427,13,2.383Z" transform="translate(0 -0.021)" fill="#5cdb95"/>
          <path id="Path_118" data-name="Path 118" d="M330.037,281.63h-.591v-.591a4.134,4.134,0,1,0-8.268,0v.591h-.591a.591.591,0,0,0-.591.591v7.086a.591.591,0,0,0,.591.591h9.449a.59.59,0,0,0,.591-.591v-7.086A.591.591,0,0,0,330.037,281.63Zm-7.677-.591a2.953,2.953,0,1,1,5.905,0v.591H322.36Zm7.086,7.677h-8.268v-5.905h8.267v5.905Z" transform="translate(-302.282 -261.577)" fill="#5cdb95"/>
          <path id="Path_119" data-name="Path 119" d="M395.258,407.088v.771a.591.591,0,1,0,1.181,0v-.771a1.163,1.163,0,0,0,.591-1,1.181,1.181,0,1,0-2.362,0A1.163,1.163,0,0,0,395.258,407.088Z" transform="translate(-372.818 -382.491)" fill="#5cdb95"/>
        </g>
      </g>
    </g>
  </g>
</svg>
