<svg xmlns="http://www.w3.org/2000/svg" xmlns:xlink="http://www.w3.org/1999/xlink" width="50" height="30" viewBox="0 0 50 30">
  <defs>
    <clipPath id="clip-Search_Icon_3">
      <rect width="50" height="30"/>
    </clipPath>
  </defs>
  <g id="Search_Icon_3" data-name="Search_Icon – 3" clip-path="url(#clip-Search_Icon_3)">
    <g id="Group_266" data-name="Group 266" transform="translate(23696.08 15320.607)">
      <path id="Path_148" data-name="Path 148" d="M64.546,121.955a13.371,13.371,0,1,0,9.063,23.258h0a13.425,13.425,0,0,0,1.355-1.432H72.232a12.945,12.945,0,0,1-1-1.378h4.714a13.369,13.369,0,0,0,.778-1.431H70.459a13.022,13.022,0,0,1-.558-1.4h7.385a13.343,13.343,0,0,0,.687-4.241,13.49,13.49,0,0,0-.307-2.864H69.509a13.608,13.608,0,0,1,.38-1.4h7.389a13.4,13.4,0,0,0-.575-1.432H70.458a12.9,12.9,0,0,1,.765-1.4h4.711a13.285,13.285,0,0,0-1.035-1.431H72.273a12.223,12.223,0,0,1,1.338-1.35,13.27,13.27,0,0,0-8.979-3.486Z" transform="translate(-23744.367 -15440.563)" fill="#931b1d"/>
      <path id="Path_149" data-name="Path 149" d="M224.063,135.331a13.343,13.343,0,1,1-26.685.005v-.005a13.343,13.343,0,1,1,26.685-.007S224.063,135.327,224.063,135.331Z" transform="translate(-23872.561 -15440.563)" fill="#f16622"/>
      <path id="Path_150" data-name="Path 150" d="M224.063,136.542a13.343,13.343,0,1,1-26.685.007v-.007a13.343,13.343,0,1,1,26.685-.007S224.063,136.539,224.063,136.542Z" transform="translate(-23872.561 -15441.626)" fill="#f7981d"/>
      <path id="Path_151" data-name="Path 151" d="M64.546,123.193a13.372,13.372,0,1,0,9.063,23.259h0a13.218,13.218,0,0,0,1.355-1.432H72.232a12.832,12.832,0,0,1-1-1.376h4.714a13.482,13.482,0,0,0,.778-1.432H70.459a13.123,13.123,0,0,1-.558-1.4h7.385a13.351,13.351,0,0,0,.687-4.241,13.485,13.485,0,0,0-.307-2.864H69.509a13.609,13.609,0,0,1,.38-1.4h7.389a13.419,13.419,0,0,0-.575-1.433H70.458a13.02,13.02,0,0,1,.765-1.4h4.711a13.529,13.529,0,0,0-1.035-1.432H72.273a12.386,12.386,0,0,1,1.338-1.35,13.272,13.272,0,0,0-8.979-3.485Z" transform="translate(-23744.367 -15441.648)" fill="#cb2026"/>
      <g id="Group_265" data-name="Group 265" transform="translate(-23691.813 -15308.537)">
        <path id="Path_152" data-name="Path 152" d="M183.625,215.239l.178-1.21c-.1,0-.24.041-.366.041-.494,0-.549-.263-.517-.458l.4-2.47h.751l.182-1.339h-.708l.144-.832h-1.421c-.031.031-.839,4.682-.839,5.247a1.056,1.056,0,0,0,1.132,1.207A3.733,3.733,0,0,0,183.625,215.239Z" transform="translate(-166.75 -208.381)" fill="#fff"/>
        <path id="Path_153" data-name="Path 153" d="M203.035,217.76a2.232,2.232,0,0,0,2.453,2.491,3.594,3.594,0,0,0,1.5-.234l.251-1.373a4.394,4.394,0,0,1-1.509.352c-1.525,0-1.258-1.14-1.258-1.14h2.888a10.32,10.32,0,0,0,.186-1.3,1.907,1.907,0,0,0-2.026-2.081C204.092,214.475,203.035,216.017,203.035,217.76Zm2.492-2.011c.8,0,.653.9.653.976H204.6C204.6,216.632,204.751,215.749,205.527,215.749Z" transform="translate(-185.709 -213.21)" fill="#fff"/>
        <path id="Path_154" data-name="Path 154" d="M269.581,211.007l.254-1.554a3.4,3.4,0,0,1-1.175.352,1.409,1.409,0,0,1-1.412-1.6c0-1.682.867-2.607,1.833-2.607a2.524,2.524,0,0,1,1.3.408l.232-1.507a5.08,5.08,0,0,0-1.6-.35c-1.64,0-3.236,1.424-3.236,4.1,0,1.774.862,2.948,2.557,2.948A6.529,6.529,0,0,0,269.581,211.007Z" transform="translate(-240.769 -204.149)" fill="#fff"/>
        <path id="Path_155" data-name="Path 155" d="M116.678,214.654a4.907,4.907,0,0,0-1.721.313l-.206,1.227a4.491,4.491,0,0,1,1.548-.25c.529,0,.915.059.915.491a.916.916,0,0,1-.047.358s-.417-.035-.61-.035c-1.228,0-2.519.525-2.519,2.111a1.35,1.35,0,0,0,1.371,1.535,1.845,1.845,0,0,0,1.457-.654l-.047.545h1.251l.558-3.922A1.681,1.681,0,0,0,116.678,214.654Zm.3,3.191c.027.24-.15,1.363-1.006,1.363a.519.519,0,0,1-.556-.538c0-.389.211-.857,1.253-.857A.927.927,0,0,1,116.982,217.846Z" transform="translate(-107.616 -213.367)" fill="#fff"/>
        <path id="Path_156" data-name="Path 156" d="M150.946,220.437c.32,0,2.149.082,2.149-1.809,0-1.769-1.693-1.42-1.693-2.13,0-.352.276-.465.78-.465.2,0,.971.065.971.065l.18-1.258a6.644,6.644,0,0,0-1.31-.111c-1.052,0-2.118.419-2.118,1.858,0,1.632,1.779,1.466,1.779,2.153,0,.458-.5.5-.881.5a4.616,4.616,0,0,1-1.261-.217l-.189,1.244A4.439,4.439,0,0,0,150.946,220.437Z" transform="translate(-138.603 -213.432)" fill="#fff"/>
        <path id="Path_157" data-name="Path 157" d="M363.73,205.423l-.306,1.905a1.877,1.877,0,0,0-1.372-.739c-1.3,0-2.387,1.572-2.387,3.38,0,1.167.578,2.309,1.762,2.309a1.772,1.772,0,0,0,1.322-.595l-.062.507h1.382l1.086-6.77Zm-.659,3.716c0,.751-.372,1.755-1.142,1.755-.512,0-.75-.43-.75-1.1,0-1.1.494-1.833,1.118-1.833C362.808,207.957,363.071,208.31,363.071,209.14Z" transform="translate(-323.151 -205.264)" fill="#fff"/>
        <path id="Path_158" data-name="Path 158" d="M62.988,212.186l.866-5.111.126,5.111h.979l1.826-5.111-.809,5.111H67.43l1.121-6.778H66.3l-1.4,4.158-.073-4.158H62.755l-1.136,6.778Z" transform="translate(-61.619 -205.254)" fill="#fff"/>
        <path id="Path_159" data-name="Path 159" d="M241.006,220.772c.413-2.356.49-4.27,1.478-3.921a5.517,5.517,0,0,1,.527-1.65,1.48,1.48,0,0,0-.274-.019c-.635,0-1.107.871-1.107.871l.126-.8h-1.323l-.885,5.518Z" transform="translate(-217.748 -213.83)" fill="#fff"/>
        <path id="Path_160" data-name="Path 160" d="M304.641,214.654a4.9,4.9,0,0,0-1.721.313l-.205,1.227a4.48,4.48,0,0,1,1.548-.25c.529,0,.916.059.916.491a.908.908,0,0,1-.048.358s-.417-.035-.612-.035c-1.229,0-2.518.525-2.518,2.111a1.35,1.35,0,0,0,1.371,1.535,1.841,1.841,0,0,0,1.457-.654l-.046.545h1.251l.558-3.922A1.68,1.68,0,0,0,304.641,214.654Zm.305,3.191c.027.24-.15,1.363-1.006,1.363a.518.518,0,0,1-.555-.538c0-.389.211-.857,1.251-.857A.931.931,0,0,1,304.946,217.846Z" transform="translate(-272.551 -213.367)" fill="#fff"/>
        <path id="Path_161" data-name="Path 161" d="M338.353,220.772c.414-2.356.491-4.27,1.478-3.921a5.484,5.484,0,0,1,.528-1.65,1.5,1.5,0,0,0-.275-.019c-.637,0-1.107.871-1.107.871l.127-.8H337.78l-.886,5.518h1.459Z" transform="translate(-303.169 -213.83)" fill="#fff"/>
      </g>
    </g>
  </g>
</svg>
