<svg xmlns="http://www.w3.org/2000/svg" xmlns:xlink="http://www.w3.org/1999/xlink" width="50" height="30" viewBox="0 0 50 30">
  <defs>
    <clipPath id="clip-Search_Icon_5">
      <rect width="50" height="30"/>
    </clipPath>
  </defs>
  <g id="Search_Icon_5" data-name="Search_Icon – 5" clip-path="url(#clip-Search_Icon_5)">
    <g id="Group_269" data-name="Group 269" transform="translate(23345.051 15338.775)">
      <g id="Group_268" data-name="Group 268" transform="translate(-23338.09 -15323.775)">
        <path id="Path_166" data-name="Path 166" d="M175.483,188.662l2.251-13.289h3.643l-2.25,13.289Z" transform="translate(-163.476 -175.159)" fill="#293688"/>
        <path id="Path_167" data-name="Path 167" d="M232.176,174.2a9.463,9.463,0,0,0-3.266-.558c-3.6,0-6.137,1.8-6.159,4.386-.02,1.909,1.811,2.974,3.194,3.61,1.418.65,1.9,1.067,1.888,1.648-.009.891-1.133,1.3-2.181,1.3a7.689,7.689,0,0,1-3.43-.7l-.47-.212-.512,2.975a11.589,11.589,0,0,0,4.06.709c3.83,0,6.317-1.781,6.345-4.54.014-1.512-.957-2.662-3.059-3.611-1.274-.614-2.054-1.024-2.046-1.647,0-.552.661-1.143,2.087-1.143a6.757,6.757,0,0,1,2.728.509l.326.153.5-2.88Z" transform="translate(-203.555 -173.647)" fill="#293688"/>
        <path id="Path_168" data-name="Path 168" d="M307.976,175.373a1.811,1.811,0,0,0-1.887,1.132l-5.4,12.158h3.858l.75-2.036h4.609l.428,2.036h3.43l-3-13.289h-2.787Zm-1.656,8.594c.3-.765,1.451-3.714,1.451-3.714-.021.035.3-.769.483-1.268l.247,1.145.843,3.837H306.32Z" transform="translate(-273.143 -175.159)" fill="#293688"/>
        <path id="Path_169" data-name="Path 169" d="M84.1,184.482l-.321-1.822a10.381,10.381,0,0,0-5.041-5.573l3.219,11.574h3.859L91.6,175.373H87.746Z" transform="translate(-78.739 -175.159)" fill="#293688"/>
      </g>
      <path id="Path_170" data-name="Path 170" d="M46.823,175.373v.215c4.572,1.1,7.746,3.88,9,7.073L54.5,176.507a1.566,1.566,0,0,0-1.68-1.134Z" transform="translate(-23388.873 -15498.934)" fill="#f7981d"/>
    </g>
  </g>
</svg>
