<svg xmlns="http://www.w3.org/2000/svg" xmlns:xlink="http://www.w3.org/1999/xlink" width="50" height="30" viewBox="0 0 50 30">
  <defs>
    <clipPath id="clip-Search_Icon_4">
      <rect width="50" height="30"/>
    </clipPath>
  </defs>
  <g id="Search_Icon_4" data-name="Search_Icon – 4" clip-path="url(#clip-Search_Icon_4)">
    <g id="Group_267" data-name="Group 267" transform="translate(23694.178 15276.853)">
      <rect id="Rectangle_299" data-name="Rectangle 299" width="3" height="4" transform="translate(-23675.178 -15253.853)" fill="#27ade4"/>
      <rect id="Rectangle_300" data-name="Rectangle 300" width="6" height="6" transform="translate(-23681.178 -15254.853)" fill="#27ade4"/>
      <rect id="Rectangle_301" data-name="Rectangle 301" width="3" height="6" transform="translate(-23673.178 -15254.853)" fill="#27ade4"/>
      <rect id="Rectangle_302" data-name="Rectangle 302" width="4" height="4" transform="translate(-23671.178 -15254.853)" fill="#27ade4"/>
      <rect id="Rectangle_303" data-name="Rectangle 303" width="5" height="4" transform="translate(-23667.178 -15254.853)" fill="#27ade4"/>
      <rect id="Rectangle_304" data-name="Rectangle 304" width="15.4" height="5" transform="translate(-23663.178 -15253.853)" fill="#27ade4"/>
      <rect id="Rectangle_305" data-name="Rectangle 305" width="2" height="2" transform="translate(-23667.178 -15250.853)" fill="#27ade4"/>
      <rect id="Rectangle_306" data-name="Rectangle 306" width="4" height="2" transform="translate(-23661.178 -15254.853)" fill="#27ade4"/>
      <rect id="Rectangle_307" data-name="Rectangle 307" width="4" height="2" transform="translate(-23656.178 -15254.853)" fill="#27ade4"/>
      <rect id="Rectangle_308" data-name="Rectangle 308" width="4.2" height="2" transform="translate(-23652.178 -15254.853)" fill="#27ade4"/>
      <rect id="Rectangle_309" data-name="Rectangle 309" width="7" height="5" transform="translate(-23688.178 -15262.853)" fill="#27ade4"/>
      <rect id="Rectangle_310" data-name="Rectangle 310" width="3.1" height="2" rx="1" transform="translate(-23690.178 -15259.853)" fill="#27ade4"/>
      <rect id="Rectangle_311" data-name="Rectangle 311" width="3.1" height="2" rx="1" transform="translate(-23689.178 -15260.853)" fill="#27ade4"/>
      <rect id="Rectangle_312" data-name="Rectangle 312" width="11" height="4" transform="translate(-23681.178 -15261.853)" fill="#27ade4"/>
      <rect id="Rectangle_313" data-name="Rectangle 313" width="29" height="4" transform="translate(-23679.178 -15262.853)" fill="#27ade4"/>
      <rect id="Rectangle_314" data-name="Rectangle 314" width="18" height="1" transform="translate(-23668.178 -15258.853)" fill="#27ade4"/>
      <path id="Path_162" data-name="Path 162" d="M36.581,163.416l-.8-1.976-.8,1.976m19.215-.787a1.067,1.067,0,0,1-.578.1H52.2v-1.1h1.439a1.185,1.185,0,0,1,.554.089.457.457,0,0,1,.245.439.508.508,0,0,1-.24.471m10.127.787-.808-1.976-.8,1.976ZM45.45,165.555h-1.2l0-3.882-1.694,3.882H41.527l-1.7-3.885v3.885H37.452L37,164.449H34.57l-.454,1.106H32.847l2.092-4.956h1.737l1.987,4.692V160.6H40.57l1.529,3.362,1.4-3.362H45.45v4.956Zm4.775,0h-3.9V160.6h3.9v1.033H47.49v.893h2.669v1.016H47.49v.988h2.735v1.026Zm5.5-3.621a1.4,1.4,0,0,1-.824,1.321,1.354,1.354,0,0,1,.578.418,1.436,1.436,0,0,1,.194.908v.974H54.5l0-.625a1.506,1.506,0,0,0-.185-.966c-.171-.174-.431-.212-.852-.212H52.2v1.8H51.034V160.6h2.688a2.716,2.716,0,0,1,1.415.237,1.161,1.161,0,0,1,.592,1.1m1.87,3.621H56.407V160.6H57.6Zm13.832,0H69.775l-2.215-3.72v3.72H65.18l-.454-1.106H62.3l-.442,1.106H60.489a2.435,2.435,0,0,1-1.694-.548,2.514,2.514,0,0,1-.624-1.892,2.655,2.655,0,0,1,.63-1.937,2.35,2.35,0,0,1,1.775-.578h1.131v1.062H60.6a1.115,1.115,0,0,0-.9.294,1.653,1.653,0,0,0-.336,1.123,1.733,1.733,0,0,0,.322,1.163,1.114,1.114,0,0,0,.814.256h.525l1.647-3.9h1.751l1.978,4.688V160.6h1.78l2.054,3.451V160.6h1.2v4.956Zm-38.6.974h2l.45-1.1h1.008l.449,1.1h3.929v-.842l.351.845h2.039l.351-.857v.854h9.763l0-1.807h.189c.132,0,.171.017.171.239v1.569h5.049v-.421a3.957,3.957,0,0,0,1.875.421h2.124l.455-1.1h1.008l.444,1.1h4.093v-1.046l.62,1.046h3.28v-6.912H69.226v.816l-.454-.816H65.44v.816l-.417-.816h-4.5a4,4,0,0,0-1.95.4v-.4H55.468v.4a1.906,1.906,0,0,0-1.32-.4H42.8l-.761,1.785-.782-1.785H37.688v.816l-.393-.816H34.248L32.833,162.9l-1.623,3.626Z" transform="translate(-23722.389 -15423.469)" fill="#2d78bc"/>
      <path id="Path_163" data-name="Path 163" d="M36.581,167.158l-.8-1.976-.8,1.976m19.215-.787a1.067,1.067,0,0,1-.578.1H52.2v-1.1h1.439a1.185,1.185,0,0,1,.554.089.457.457,0,0,1,.245.439.508.508,0,0,1-.24.471m10.127.787-.808-1.976-.8,1.976ZM45.45,169.3h-1.2l0-3.882L42.553,169.3H41.527l-1.7-3.885V169.3H37.452L37,168.191H34.57l-.454,1.106H32.847l2.092-4.956h1.737l1.987,4.692V164.34H40.57L42.1,167.7l1.4-3.362H45.45V169.3Zm4.775,0h-3.9V164.34h3.9v1.033H47.49v.893h2.669v1.016H47.49v.988h2.735V169.3Zm5.5-3.621a1.4,1.4,0,0,1-.824,1.32,1.355,1.355,0,0,1,.578.418,1.436,1.436,0,0,1,.194.908v.974H54.5l0-.625a1.506,1.506,0,0,0-.185-.966c-.171-.174-.431-.212-.852-.212H52.2v1.8H51.034V164.34h2.688a2.716,2.716,0,0,1,1.415.237,1.16,1.16,0,0,1,.592,1.1M57.6,169.3H56.407v-4.956H57.6Zm13.832,0H69.775l-2.215-3.72v3.72H65.18l-.454-1.106H62.3l-.442,1.106H60.489a2.435,2.435,0,0,1-1.694-.548,2.514,2.514,0,0,1-.624-1.892,2.655,2.655,0,0,1,.63-1.937,2.35,2.35,0,0,1,1.775-.578h1.131V165.4H60.6a1.115,1.115,0,0,0-.9.294,1.654,1.654,0,0,0-.336,1.123,1.733,1.733,0,0,0,.322,1.163,1.114,1.114,0,0,0,.814.256h.525l1.647-3.9h1.751l1.978,4.688v-4.688h1.78l2.054,3.451v-3.451h1.2V169.3Zm-38.6.974h2l.45-1.1h1.008l.449,1.1h3.929v-.842l.351.845h2.039l.351-.857v.854h9.763l0-1.807h.189c.132,0,.171.017.171.239v1.569h5.049v-.421a3.957,3.957,0,0,0,1.875.421h2.124l.455-1.1h1.008l.444,1.1h4.093v-1.046l.62,1.046h3.28v-6.912H69.226v.816l-.454-.816H65.44v.816l-.417-.816h-4.5a4,4,0,0,0-1.95.4v-.4H55.468v.4a1.906,1.906,0,0,0-1.32-.4H42.8l-.761,1.785-.782-1.785H37.688v.816l-.393-.816H34.248l-1.416,3.287L31.21,170.27Z" transform="translate(-23722.389 -15426.806)" fill="#fff"/>
      <path id="Path_164" data-name="Path 164" d="M155.856,240.567V237.4h-2.927a2.419,2.419,0,0,0-1.463.4v-.4h-3.2a2.193,2.193,0,0,0-1.4.4v-.4h-5.716v.4a3.012,3.012,0,0,0-1.576-.4h-3.77v.4a2.641,2.641,0,0,0-1.648-.4h-4.219l-.965,1.058-.9-1.058h-6.3v6.912h6.183l.995-1.074.937,1.074,3.812,0v-1.626h.374a3.921,3.921,0,0,0,1.628-.243v1.865h3.144v-1.8h.152c.194,0,.212.009.212.2v1.6h9.55a2.706,2.706,0,0,0,1.592-.442v.442h3.029a4.015,4.015,0,0,0,1.715-.319v-.007a2.5,2.5,0,0,0,.764-3.414Zm-21.734,1.106h-1.459v1.662h-2.272l-1.44-1.64-1.5,1.64h-4.631v-4.954h4.7L128.965,240l1.487-1.624h3.736c.927,0,1.97.26,1.97,1.632S135.144,241.673,134.122,241.673Zm7.036-.225a1.457,1.457,0,0,1,.194.9v.982h-1.173v-.62a1.481,1.481,0,0,0-.189-.97c-.171-.177-.431-.22-.858-.22h-1.25v1.81h-1.174v-4.954h2.7a2.86,2.86,0,0,1,1.407.234,1.162,1.162,0,0,1,.6,1.1,1.387,1.387,0,0,1-.829,1.318A1.273,1.273,0,0,1,141.158,241.448Zm4.806-2.043h-2.738v.9H145.9v1.011h-2.671v.986l2.738,0v1.028h-3.9v-4.955h3.9v1.025Zm2.977,3.929h-2.277v-1.063h2.269a.676.676,0,0,0,.478-.123.443.443,0,0,0,.138-.322.428.428,0,0,0-.143-.328.607.607,0,0,0-.416-.11c-1.093-.037-2.463.034-2.463-1.534a1.462,1.462,0,0,1,1.671-1.475h2.344v1.054H148.4a.788.788,0,0,0-.469.089.418.418,0,0,0,.08.726,1.346,1.346,0,0,0,.455.055l.63.018a1.869,1.869,0,0,1,1.335.4,1.385,1.385,0,0,1,.349,1.049C150.778,242.837,150.121,243.335,148.942,243.335Zm6.017-.478a1.976,1.976,0,0,1-1.453.478h-2.258v-1.063H153.5a.655.655,0,0,0,.474-.123.436.436,0,0,0,.138-.322.41.41,0,0,0-.143-.328.586.586,0,0,0-.412-.11c-1.1-.037-2.467.034-2.467-1.534a1.467,1.467,0,0,1,1.678-1.475h2.284v1.054h-2.086a.806.806,0,0,0-.473.089.387.387,0,0,0-.171.356.374.374,0,0,0,.256.369,1.311,1.311,0,0,0,.45.056l.634.017a1.828,1.828,0,0,1,1.326.4.665.665,0,0,1,.109.122l-.04-.051a1.627,1.627,0,0,1-.094,2.063Zm-28.039-3.451,1.279,1.443-1.336,1.453h-2.875v-.986h2.567v-1.011h-2.567v-.9Zm2.784,1.46,1.8-1.953v3.971Zm5.2-.853c0,.429-.28.654-.729.654h-1.511v-1.261h1.525C134.61,239.406,134.9,239.579,134.9,240.013Zm5.218-.072a.536.536,0,0,1-.242.475,1.106,1.106,0,0,1-.577.1h-1.421v-1.112h1.439a1.139,1.139,0,0,1,.558.089A.471.471,0,0,1,140.122,239.941Z" transform="translate(-23803.15 -15492.834)" fill="#2d78bc"/>
      <path id="Path_165" data-name="Path 165" d="M155.856,244.309v-3.171h-2.927a2.419,2.419,0,0,0-1.463.4v-.4h-3.2a2.193,2.193,0,0,0-1.4.4v-.4h-5.716v.4a3.012,3.012,0,0,0-1.576-.4h-3.77v.4a2.641,2.641,0,0,0-1.648-.4h-4.219l-.965,1.058-.9-1.058h-6.3v6.912h6.183l.995-1.074.937,1.074,3.812,0v-1.626h.374a3.921,3.921,0,0,0,1.628-.243v1.865h3.144v-1.8h.152c.194,0,.212.009.212.2v1.6h9.55a2.706,2.706,0,0,0,1.592-.442v.442h3.029a4.015,4.015,0,0,0,1.715-.319v-.007a2.5,2.5,0,0,0,.764-3.414Zm-21.734,1.106h-1.459v1.662h-2.272l-1.44-1.64-1.5,1.64h-4.631v-4.954h4.7l1.438,1.624,1.487-1.624h3.736c.927,0,1.97.26,1.97,1.632S135.144,245.415,134.122,245.415Zm7.036-.225a1.457,1.457,0,0,1,.194.9v.982h-1.173v-.62a1.481,1.481,0,0,0-.189-.97c-.171-.177-.431-.22-.858-.22h-1.25v1.81h-1.174v-4.954h2.7a2.859,2.859,0,0,1,1.407.234,1.162,1.162,0,0,1,.6,1.1,1.387,1.387,0,0,1-.829,1.318A1.276,1.276,0,0,1,141.158,245.19Zm4.806-2.043h-2.738v.9H145.9v1.011h-2.671v.986l2.738,0v1.028h-3.9v-4.955h3.9v1.025Zm2.977,3.929h-2.277v-1.063h2.269a.677.677,0,0,0,.478-.123.443.443,0,0,0,.138-.322.428.428,0,0,0-.143-.328.607.607,0,0,0-.416-.11c-1.093-.037-2.463.034-2.463-1.534a1.462,1.462,0,0,1,1.671-1.475h2.344v1.054H148.4a.788.788,0,0,0-.469.089.418.418,0,0,0,.08.726,1.347,1.347,0,0,0,.455.055l.63.018a1.869,1.869,0,0,1,1.335.4,1.385,1.385,0,0,1,.349,1.049C150.778,246.579,150.121,247.077,148.942,247.077Zm6.017-.478a1.976,1.976,0,0,1-1.453.479h-2.258v-1.063H153.5a.655.655,0,0,0,.474-.123.436.436,0,0,0,.138-.322.41.41,0,0,0-.143-.328.586.586,0,0,0-.412-.11c-1.1-.037-2.467.034-2.467-1.534a1.467,1.467,0,0,1,1.678-1.475h2.284v1.054h-2.086a.807.807,0,0,0-.473.089.387.387,0,0,0-.171.356.374.374,0,0,0,.256.369,1.313,1.313,0,0,0,.45.056l.634.017a1.828,1.828,0,0,1,1.326.4.667.667,0,0,1,.109.122l-.04-.051a1.627,1.627,0,0,1-.094,2.063Zm-28.039-3.451,1.279,1.444-1.336,1.453h-2.875v-.986h2.567v-1.011h-2.567v-.9Zm2.784,1.46,1.8-1.953v3.971Zm5.2-.853c0,.429-.28.654-.729.654h-1.511v-1.261h1.525C134.61,243.148,134.9,243.321,134.9,243.755Zm5.218-.072a.536.536,0,0,1-.242.475,1.106,1.106,0,0,1-.577.1h-1.421v-1.112h1.439a1.139,1.139,0,0,1,.558.089A.471.471,0,0,1,140.122,243.683Z" transform="translate(-23803.15 -15496.171)" fill="#fff"/>
    </g>
  </g>
</svg>
