<svg xmlns="http://www.w3.org/2000/svg" xmlns:xlink="http://www.w3.org/1999/xlink" width="30" height="30" viewBox="0 0 30 30">
  <defs>
    <clipPath id="clip-Portal_Favicon_1">
      <rect width="30" height="30"/>
    </clipPath>
  </defs>
  <g id="Portal_Favicon_1" data-name="Portal_Favicon – 1" clip-path="url(#clip-Portal_Favicon_1)">
    <g id="Group_168" data-name="Group 168" transform="translate(1 2)">
      <g id="steering-wheel">
        <path id="Path_109" data-name="Path 109" d="M23.581,3.949A14.071,14.071,0,0,0,6,2.366a.519.519,0,0,0-.139.732.548.548,0,0,0,.75.136,12.879,12.879,0,0,1,7.205-2.181A12.6,12.6,0,0,1,26.548,13.485,12.6,12.6,0,0,1,13.813,25.916,12.6,12.6,0,0,1,1.079,13.485,12.154,12.154,0,0,1,3.313,6.451a.519.519,0,0,0-.139-.732.548.548,0,0,0-.75.136A13.243,13.243,0,0,0,4.046,23.02a14.053,14.053,0,0,0,19.535,0,13.259,13.259,0,0,0,0-19.07Z" transform="translate(0 0)" fill="#05386b"/>
        <path id="Path_111" data-name="Path 111" d="M206,209.041A3.041,3.041,0,1,0,209.041,206,3.045,3.045,0,0,0,206,209.041Zm3.041-1.825a1.825,1.825,0,1,1-1.825,1.825A1.827,1.827,0,0,1,209.041,207.217Z" transform="translate(-195.228 -195.557)" fill="#05386b"/>
        <path id="Path_112" data-name="Path 112" d="M72.657,73.268a.608.608,0,1,0-.43-1.039h0a.608.608,0,0,0,.43,1.038Z" transform="translate(-68.116 -68.388)" fill="#05386b"/>
      </g>
      <path id="Path_110" data-name="Path 110" d="M60.772,70.886A10.623,10.623,0,0,0,71.544,60.443a10.111,10.111,0,0,0-.593-3.418l0-.008A10.771,10.771,0,0,0,60.772,50a10.448,10.448,0,1,0,0,20.886ZM70.5,60.443q0,.364-.028.721a8.681,8.681,0,0,0-1.6.232,7.8,7.8,0,0,0-.612-4.093q.9.15,1.8.336A9.133,9.133,0,0,1,70.5,60.443ZM67,57.112a6.782,6.782,0,0,1,.757,4.634,8.35,8.35,0,0,0-4.97,5.31,7.385,7.385,0,0,1-4.029,0,8.35,8.35,0,0,0-4.97-5.31,6.783,6.783,0,0,1,.757-4.634,45.67,45.67,0,0,1,12.454,0ZM52.675,61.4a8.684,8.684,0,0,0-1.6-.232q-.028-.357-.028-.721a9.133,9.133,0,0,1,.439-2.8q.9-.186,1.8-.336A7.8,7.8,0,0,0,52.675,61.4Zm-1.461.793a7.3,7.3,0,0,1,6.839,7.176c0,.044,0,.087,0,.131A9.575,9.575,0,0,1,51.214,62.189Zm7.876,7.542c.006-.122.009-.244.009-.365a8,8,0,0,0-.091-1.2,8.484,8.484,0,0,0,3.528,0,8,8,0,0,0-.091,1.2c0,.121,0,.243.009.365a10.068,10.068,0,0,1-3.364,0Zm4.4-.234c0-.044,0-.087,0-.131a7.3,7.3,0,0,1,6.839-7.176A9.575,9.575,0,0,1,63.493,69.5ZM60.772,51.014a9.76,9.76,0,0,1,8.841,5.5,46.808,46.808,0,0,0-17.681,0A9.76,9.76,0,0,1,60.772,51.014Z" transform="translate(-46.959 -46.959)" fill="#05386b"/>
    </g>
  </g>
</svg>
