<svg xmlns="http://www.w3.org/2000/svg" xmlns:xlink="http://www.w3.org/1999/xlink" width="200" height="200" viewBox="0 0 200 200">
  <defs>
    <clipPath id="clip-Artboard_4">
      <rect width="200" height="200"/>
    </clipPath>
  </defs>
  <g id="Artboard_4" data-name="Artboard – 4" clip-path="url(#clip-Artboard_4)">
    <g id="fix" transform="translate(9 8.944)">
      <g id="Group_194" data-name="Group 194" transform="translate(0 0.056)">
        <path id="Path_122" data-name="Path 122" d="M166.562,122.709a31.86,31.86,0,0,0-22.339-3.676l-27.716-27.7L144.244,63.6a32.089,32.089,0,0,0,37.234-39.778A32.092,32.092,0,0,0,119.01,38.42L91.292,66.125l-2.25-2.249A3.566,3.566,0,0,0,84,68.919l2.248,2.247L71.122,86.287,44.522,59.7,59.635,44.565,61.3,46.232a3.566,3.566,0,0,0,5.042-5.044L63.554,38.4A32.095,32.095,0,0,0,17.978,3.344C14.788,4.9,13.127,6.909,13.043,9.32c-.083,2.366,1.349,4.417,4.256,6.094l9.573,5.524c1.63.941,1.63,1.4,1.63,2.223v4.1c0,2.556-.254,2.995-2.468,4.273l-3.55,2.049c-.694.4-1.113.643-2.744-.3l-9.573-5.524c-2.906-1.678-5.4-1.891-7.406-.636C.715,28.4-.2,30.842.051,34.381a32.094,32.094,0,0,0,38.31,29.244l27.716,27.7L38.341,119.054a32.08,32.08,0,1,0,25.234,25.184l27.717-27.706,27.738,27.726a32.093,32.093,0,0,0,45.576,35.055c3.19-1.555,4.851-3.566,4.935-5.977.082-2.366-1.349-4.416-4.256-6.094l-9.573-5.524c-1.63-.941-1.63-1.4-1.63-2.223v-4.1c0-2.555.254-2.995,2.468-4.272l3.55-2.049c.694-.4,1.113-.642,2.744.3l9.573,5.524c2.906,1.678,5.4,1.892,7.406.636,2.045-1.278,2.957-3.721,2.709-7.26a32.056,32.056,0,0,0-15.97-25.568ZM19.587,53.772A24.936,24.936,0,0,1,7.2,34.277l8.978,5.181c2.23,1.287,5.681,2.719,9.873.3L29.6,37.709c4.4-2.539,6.035-5.371,6.035-10.449v-4.1c0-4.841-2.966-7.112-5.2-8.4l-8.975-5.18A24.96,24.96,0,0,1,56.408,37.7L37.663,56.473a24.782,24.782,0,0,1-18.076-2.7ZM128.863,19.656a24.959,24.959,0,1,1,16.076,36.8L126.161,37.72A24.752,24.752,0,0,1,128.863,19.656ZM53.722,163a24.959,24.959,0,1,1-16.076-36.8l18.779,18.738A24.756,24.756,0,0,1,53.722,163Zm5.927-24.922-15.14-15.107,78.428-78.395,15.14,15.107Zm36.687-26.589,15.127-15.121,26.6,26.589-15.114,15.133ZM166.41,143.2c-2.23-1.288-5.681-2.719-9.873-.3l-3.551,2.049c-4.4,2.539-6.035,5.371-6.035,10.448v4.1c0,4.84,2.966,7.112,5.2,8.4l8.975,5.179a24.96,24.96,0,0,1-34.946-28.123l18.745-18.769a24.951,24.951,0,0,1,30.467,22.2Z" transform="translate(0 -0.056)" fill="#379683"/>
        <path id="Path_123" data-name="Path 123" d="M383.8,70.552l10.7,6.173a3.565,3.565,0,0,0,3.564,0l10.7-6.173a3.565,3.565,0,0,0,1.784-3.088V55.117a3.565,3.565,0,0,0-1.784-3.088l-10.7-6.173a3.565,3.565,0,0,0-3.564,0l-10.7,6.173a3.565,3.565,0,0,0-1.784,3.088V67.464A3.565,3.565,0,0,0,383.8,70.552Zm5.348-13.376,7.132-4.116,7.131,4.116V65.4l-7.131,4.116L389.145,65.4Z" transform="translate(-245.796 -29.217)" fill="#379683"/>
        <path id="Path_124" data-name="Path 124" d="M76.781,384.072l-10.7-6.173a3.566,3.566,0,0,0-3.565,0l-10.7,6.173a3.566,3.566,0,0,0-1.783,3.088v12.346a3.566,3.566,0,0,0,1.783,3.088l10.7,6.173a3.566,3.566,0,0,0,3.565,0l10.7-6.173a3.566,3.566,0,0,0,1.783-3.088V387.16A3.567,3.567,0,0,0,76.781,384.072Zm-5.348,13.376L64.3,401.563l-7.132-4.116v-8.228L64.3,385.1l7.132,4.116Z" transform="translate(-32.195 -242.862)" fill="#379683"/>
        <path id="Path_125" data-name="Path 125" d="M204.384,151.427a3.566,3.566,0,1,0,0-7.132h0a3.566,3.566,0,0,0,0,7.132Z" transform="translate(-129.21 -92.863)" fill="#379683"/>
      </g>
    </g>
  </g>
</svg>
